<?xml version="1.0" encoding="UTF-8"?>
<svg id="Layer_2" data-name="Layer 2" xmlns="http://www.w3.org/2000/svg" viewBox="0 0 2086.12 945.3">
  <defs>
    <style>
      .cls-1 {
        fill: #f2f2f2;
      }

      .cls-2 {
        opacity: .5;
      }
    </style>
  </defs>
  <g id="Layer_1-2" data-name="Layer 1">
    <g>
      <polygon class="cls-1" points="216.17 9.74 216.17 91.74 149.08 91.74 149.08 883.16 67.08 883.16 67.08 91.74 0 91.74 0 9.74 216.17 9.74"/>
      <polygon class="cls-1" points="380.39 91.67 380.39 312.37 512.83 312.37 512.83 394.37 380.39 394.37 380.39 801.22 512.83 801.22 512.83 883.22 298.39 883.22 298.39 9.67 512.83 9.67 512.83 91.67 380.39 91.67"/>
      <polygon class="cls-1" points="1120.08 9.67 1120.08 883.22 1038.08 883.22 1038.08 385.89 985.86 385.89 985.86 883.22 903.86 883.22 903.86 9.67 985.86 9.67 985.86 303.89 1038.08 303.89 1038.08 9.67 1120.08 9.67"/>
      <path class="cls-1" d="M739.63,165.89v-52.59c0-17.26-14.04-31.3-31.29-31.3s-31.29,14.04-31.29,31.3v666.31c0,17.26,14.03,31.29,31.29,31.29s31.29-14.03,31.29-31.29v-52.59h82v52.59c0,62.47-50.82,113.29-113.29,113.29s-113.29-50.82-113.29-113.29V113.3c0-62.47,50.82-113.3,113.29-113.3s113.29,50.83,113.29,113.3v52.59h-82Z"/>
      <path class="cls-1" d="M2016.83,863.3c-2.16,0-4.25-.36-6.22-1.05,22.07-20.67,35.89-50.07,35.89-82.64V113.3c0-62.47-50.83-113.3-113.3-113.3s-113.29,50.83-113.29,113.3v666.31c0,60.81,48.15,110.58,108.33,113.17,17.72,32.41,51.64,52.52,88.59,52.52h69.29v-82h-69.29ZM1964.5,779.61c0,17.26-14.04,31.29-31.3,31.29s-31.29-14.03-31.29-31.29V113.3c0-17.26,14.04-31.3,31.29-31.3s31.3,14.04,31.3,31.3v666.31Z"/>
      <g>
        <g>
          <path class="cls-1" d="M1629.25,9.79c-1.61-.08-3.22-.11-4.85-.11h-113.29v873.55h113.29c1.63,0,3.24-.03,4.85-.11,60.23-2.54,108.44-52.34,108.44-113.18v-341.63c0-27.45-9.82-52.66-26.13-72.29,16.31-19.63,26.13-44.84,26.13-72.29V122.96c0-60.84-48.21-110.64-108.44-113.18ZM1624.4,397.02c17.25,0,31.29,14.04,31.29,31.29v341.63c0,17.26-14.04,31.29-31.29,31.29h-31.29v-404.21h31.29M1655.69,283.72c0,17.25-14.04,31.29-31.29,31.29h-31.29V91.67h31.29c17.25,0,31.29,14.03,31.29,31.29v160.76Z"/>
          <path class="cls-1" d="M1629.25,9.67v.11c-1.61-.08-3.22-.11-4.85-.11h4.85Z"/>
        </g>
        <g class="cls-2">
          <path class="cls-1" d="M1629.25,883.11v.11h-4.85c1.63,0,3.24-.03,4.85-.11Z"/>
        </g>
      </g>
      <g>
        <g>
          <path class="cls-1" d="M1320.44,9.9c-1.61-.08-3.22-.11-4.85-.11h-113.29v873.55h113.29c1.63,0,3.24-.03,4.85-.11,60.23-2.54,108.44-52.34,108.44-113.18v-341.63c0-27.45-9.82-52.66-26.13-72.29,16.31-19.63,26.13-44.84,26.13-72.29V123.08c0-60.84-48.21-110.64-108.44-113.18ZM1315.59,397.13c17.25,0,31.29,14.04,31.29,31.29v341.63c0,17.26-14.04,31.29-31.29,31.29h-31.29v-404.21h31.29M1346.88,283.84c0,17.25-14.04,31.29-31.29,31.29h-31.29V91.79h31.29c17.25,0,31.29,14.03,31.29,31.29v160.76Z"/>
          <path class="cls-1" d="M1320.44,9.79v.11c-1.61-.08-3.22-.11-4.85-.11h4.85Z"/>
        </g>
        <g class="cls-2">
          <path class="cls-1" d="M1320.44,883.22v.11h-4.85c1.63,0,3.24-.03,4.85-.11Z"/>
        </g>
      </g>
    </g>
  </g>
</svg>