<?xml version="1.0" encoding="UTF-8"?>
<svg id="Layer_2" data-name="Layer 2" xmlns="http://www.w3.org/2000/svg" viewBox="0 0 2096.12 955.3">
  <defs>
    <style>
      .cls-1 {
        fill: none;
        stroke: #f2f2f2;
        stroke-miterlimit: 10;
        stroke-width: 10px;
      }

      .cls-2 {
        opacity: .5;
      }
    </style>
  </defs>
  <g id="Layer_1-2" data-name="Layer 1">
    <g>
      <polygon class="cls-1" points="221.17 14.74 221.17 96.74 154.08 96.74 154.08 888.16 72.08 888.16 72.08 96.74 5 96.74 5 14.74 221.17 14.74"/>
      <polygon class="cls-1" points="385.39 96.67 385.39 317.37 517.83 317.37 517.83 399.37 385.39 399.37 385.39 806.22 517.83 806.22 517.83 888.22 303.39 888.22 303.39 14.67 517.83 14.67 517.83 96.67 385.39 96.67"/>
      <polygon class="cls-1" points="1125.08 14.67 1125.08 888.22 1043.08 888.22 1043.08 390.89 990.86 390.89 990.86 888.22 908.86 888.22 908.86 14.67 990.86 14.67 990.86 308.89 1043.08 308.89 1043.08 14.67 1125.08 14.67"/>
      <path class="cls-1" d="M744.63,170.89v-52.59c0-17.26-14.04-31.3-31.29-31.3s-31.29,14.04-31.29,31.3v666.31c0,17.26,14.03,31.29,31.29,31.29s31.29-14.03,31.29-31.29v-52.59h82v52.59c0,62.47-50.82,113.29-113.29,113.29s-113.29-50.82-113.29-113.29V118.3c0-62.47,50.82-113.3,113.29-113.3s113.29,50.83,113.29,113.3v52.59h-82Z"/>
      <path class="cls-1" d="M2021.83,868.3c-2.16,0-4.25-.36-6.22-1.05,22.07-20.67,35.89-50.07,35.89-82.64V118.3c0-62.47-50.83-113.3-113.3-113.3s-113.29,50.83-113.29,113.3v666.31c0,60.81,48.15,110.58,108.33,113.17,17.72,32.41,51.64,52.52,88.59,52.52h69.29v-82h-69.29ZM1969.5,784.61c0,17.26-14.04,31.29-31.3,31.29s-31.29-14.03-31.29-31.29V118.3c0-17.26,14.04-31.3,31.29-31.3s31.3,14.04,31.3,31.3v666.31Z"/>
      <g>
        <g>
          <path class="cls-1" d="M1634.25,14.79c-1.61-.08-3.22-.11-4.85-.11h-113.29v873.55h113.29c1.63,0,3.24-.03,4.85-.11,60.23-2.54,108.44-52.34,108.44-113.18v-341.63c0-27.45-9.82-52.66-26.13-72.29,16.31-19.63,26.13-44.84,26.13-72.29V127.96c0-60.84-48.21-110.64-108.44-113.18ZM1629.4,402.02c17.25,0,31.29,14.04,31.29,31.29v341.63c0,17.26-14.04,31.29-31.29,31.29h-31.29v-404.21h31.29M1660.69,288.72c0,17.25-14.04,31.29-31.29,31.29h-31.29V96.67h31.29c17.25,0,31.29,14.03,31.29,31.29v160.76Z"/>
          <path class="cls-1" d="M1634.25,14.67v.11c-1.61-.08-3.22-.11-4.85-.11h4.85Z"/>
        </g>
        <g class="cls-2">
          <path class="cls-1" d="M1634.25,888.11v.11h-4.85c1.63,0,3.24-.03,4.85-.11Z"/>
        </g>
      </g>
      <g>
        <g>
          <path class="cls-1" d="M1325.44,14.9c-1.61-.08-3.22-.11-4.85-.11h-113.29v873.55h113.29c1.63,0,3.24-.03,4.85-.11,60.23-2.54,108.44-52.34,108.44-113.18v-341.63c0-27.45-9.82-52.66-26.13-72.29,16.31-19.63,26.13-44.84,26.13-72.29v-160.76c0-60.84-48.21-110.64-108.44-113.18ZM1320.59,402.13c17.25,0,31.29,14.04,31.29,31.29v341.63c0,17.26-14.04,31.29-31.29,31.29h-31.29v-404.21h31.29M1351.88,288.84c0,17.25-14.04,31.29-31.29,31.29h-31.29V96.79h31.29c17.25,0,31.29,14.03,31.29,31.29v160.76Z"/>
          <path class="cls-1" d="M1325.44,14.79v.11c-1.61-.08-3.22-.11-4.85-.11h4.85Z"/>
        </g>
        <g class="cls-2">
          <path class="cls-1" d="M1325.44,888.22v.11h-4.85c1.63,0,3.24-.03,4.85-.11Z"/>
        </g>
      </g>
    </g>
  </g>
</svg>