<?xml version="1.0" encoding="UTF-8"?>
<svg xmlns="http://www.w3.org/2000/svg" version="1.1" viewBox="0 0 204.656 26.003">
  <defs>
    <style>
      .cls-1 {
        fill: #fff;
      }
    </style>
  </defs>
  <!-- Generator: Adobe Illustrator 28.6.0, SVG Export Plug-In . SVG Version: 1.2.0 Build 709)  -->
  <g>
    <g id="Layer_1">
      <g>
        <g>
          <path class="cls-1" d="M26.955,25.748h-6.366l-1.818-5.166h-10.731l-1.855,5.166H0L9.458.284h8.185l9.312,25.464ZM17.061,15.672l-3.602-10.331-3.674,10.331h7.275Z"/>
          <path class="cls-1" d="M26.666,13.344C26.666,4.831,32.741.029,39.543.029c6.875,0,10.368,4.329,11.313,8.112l-6.257,1.382c-.909-2.328-2.51-4.22-5.565-4.22-3.383,0-5.82,2.619-5.82,7.712,0,4.984,2.837,7.712,6.693,7.712,2.728,0,4.947-1.71,5.747-4.365h-4.692l.364-4.729h10.368v14.114h-4.729v-4.729c-1.673,3.019-4.911,4.983-8.476,4.983-6.548,0-11.822-4.511-11.822-12.659Z"/>
          <path class="cls-1" d="M53.914,13.016C53.914,4.686,58.388.029,66.428.029s12.514,4.656,12.514,12.987-4.475,12.987-12.514,12.987-12.514-4.656-12.514-12.987ZM66.428,20.729c3.819,0,5.966-2.766,5.966-7.712s-2.146-7.712-5.966-7.712-5.966,2.765-5.966,7.712,2.146,7.712,5.966,7.712Z"/>
          <path class="cls-1" d="M81.453.284h9.676c6.621,0,10.768,3.311,10.768,8.585,0,5.42-3.856,8.84-10.04,8.84h-4.038v8.039h-6.366V.284ZM90.766,12.798c2.801,0,4.583-1.455,4.583-3.783,0-2.364-1.783-3.819-4.583-3.819h-2.946v7.603h2.946Z"/>
          <path class="cls-1" d="M104.153.284h10.404c6.184,0,10.04,3.092,10.04,8.039,0,3.456-1.892,6.039-5.093,7.058l6.548,10.367h-7.021l-5.021-8.585h-3.492v8.585h-6.366V.284ZM113.466,12.252c3.238,0,4.584-1.346,4.584-3.528s-1.346-3.528-4.584-3.528h-2.946v7.057h2.946Z"/>
          <path class="cls-1" d="M128.056.284h17.497v4.911h-11.132v5.056h9.276v4.911h-9.276v5.675h11.132v4.911h-17.497V.284Z"/>
          <path class="cls-1" d="M148.138.284h6.729l9.458,15.351V.284h6.002v25.464h-6.002l-10.186-16.406v16.406h-6.002V.284Z"/>
          <path class="cls-1" d="M173.966.284h17.498v4.911h-11.132v5.056h9.276v4.911h-9.276v5.675h11.132v4.911h-17.498V.284Z"/>
        </g>
        <g>
          <path class="cls-1" d="M200.146,5.95c.59-.19.93-.66.93-1.29,0-.9-.7-1.47-1.83-1.47h-1.9v4.66h1.16v-1.57h.64l.92,1.57h1.28l-1.2-1.9ZM199.046,5.38h-.54v-1.29h.54c.59,0,.84.24.84.64s-.25.65-.84.65Z"/>
          <path class="cls-1" d="M199.056,0c-3.09,0-5.6,2.51-5.6,5.6s2.51,5.61,5.6,5.61,5.6-2.52,5.6-5.61-2.51-5.6-5.6-5.6ZM199.056,9.74c-2.29,0-4.14-1.85-4.14-4.14s1.85-4.14,4.14-4.14,4.14,1.86,4.14,4.14-1.85,4.14-4.14,4.14Z"/>
        </g>
      </g>
    </g>
  </g>
</svg>