<?xml version="1.0" encoding="UTF-8"?>
<svg id="Layer_2" data-name="Layer 2" xmlns="http://www.w3.org/2000/svg" viewBox="0 0 392.73 159.38">
  <defs>
    <style>
      .cls-1 {
        fill: #fff;
      }
    </style>
  </defs>
  <g id="Layer_1-2" data-name="Layer 1">
    <g>
      <path class="cls-1" d="M122.27,91.33l.05-15.24c0-3.17.58-6.23,1.5-8.99,14.7,2.57,26.81,12.3,33.97,25.4,3.09,8.29,4.93,16.82,3.88,25.83-1.21,10.37-5.93,19.69-13.54,27.16-8.63,8.46-19.42,13.15-31.61,13.42-12.29.27-23.52-3.77-32.58-12.02s-14.9-19.01-15.01-31.41l-.39-48c-.08-10.37-9.38-18.27-18.85-19.73-10.22-1.58-19.97,3.59-24.28,13.05-3.38,7.42-2.33,15.89,2.49,22.44,4.36,5.93,11.72,9.61,19.59,9.11,6.03-.22,11.17-2.75,15.35-7.27l.04,27.93c-11.17,4.23-23.35,4.17-34.39-.22C14.36,107.16,2.75,93.15,0,78.5v-17.71c2.15-9.34,6.89-17.57,13.95-24.35,8.76-8.41,19.83-12.86,32.08-12.87,11.18,0,21.4,3.52,29.96,10.69,9.67,8.11,16.39,19.36,16.49,32.32l.37,48c.08,9.83,8.17,17.63,16.99,19.78,9.79,2.38,19.44-1.59,24.82-10.01,3.91-6.13,4.48-13.64,1.43-20.79-2.31-5.41-7.46-10.44-13.81-12.23Z"/>
      <path class="cls-1" d="M268.74,0l-.2,73.66c0,12.72,9.83,22.6,22.49,22.77,13.09.17,23.36-10.6,22.86-23.35-.49-12.52-11.42-22.45-24.32-21.38-5.83.39-10.75,2.75-15.05,7.13l-.06-28.04c11.26-4.03,23.57-4.29,34.72.42,10.82,4.56,19.66,12.99,24.56,23.74,10.68,23.44-.03,51.12-23.84,61.53-13.76,6.02-29.87,4.91-42.59-2.73-13.72-8.23-22.5-22.24-22.54-38.29l-.17-75.47h24.14Z"/>
      <path class="cls-1" d="M161.66,118.32c1.05-9.01-.79-17.54-3.88-25.83l-.13-17.79c-.05-6.11-2.26-11.33-6.19-15.75-6.11-6.85-16.08-7.19-22.42-.43-2.34,2.5-4.16,5.4-5.22,8.56-.92,2.77-1.49,5.82-1.5,8.99l-.05,15.24-.02,27.02-23.87.04-.03-88.61h23.88s.15,6.09.15,6.09c9.93-6.56,22.34-7.34,33.72-4.1,6.83,1.95,12.62,5.73,16.91,11.63,7.58-9.41,18.47-14.01,30.25-13.43,15.01.73,25.59,5.68,32.15,19.35,3.51,7.29,4.68,14.96,5.07,23.13l.07,45.93h-24.07s-.03-43.84-.03-43.84c-.33-6.37-2.61-12.05-7.08-16.46-6.1-6.04-15.51-5.89-21.42.46-3.66,3.93-6.29,9.07-6.31,14.75l-.12,45.09-19.89-.02Z"/>
      <path class="cls-1" d="M367.72,63.39l-.1,52.15-23.89.02.07-53.77c.02-18.61,16.49-34.69,34.53-34.78l12.9-.06v21.54s-7.73.02-7.73.02c-8.15.02-15.75,6.12-15.77,14.89Z"/>
      <path class="cls-1" d="M392.72,124.44h-219.7c.1-.31.1-.63,0-.94h219.41c.26.1.34.67.29.94Z"/>
      <path class="cls-1" d="M392.72,159.38h-219.7c.1-.31.1-.63,0-.94h219.41c.26.1.34.67.29.94Z"/>
      <path class="cls-1" d="M222.59,151.01c-1.26.41-2.26.3-3.32.06l-6.21-9.98-.18,10.06c-1.04.14-1.85.14-2.9,0v-15.6c1.18-.15,2.11-.11,3.27.06l6.2,10.08.13-10.17,2.99.02.02,15.47Z"/>
      <path class="cls-1" d="M241.29,142.31c2.53.8,3.14,3.5,2.55,5.63-.65,2.36-2.87,3.38-5.33,3.57-3.78.29-6.99-1.52-7.15-5.45l3.05-.36c.24,1.09.62,2.08,1.43,2.55,1.58.92,3.89.59,4.73-.76.35-.56.41-1.78-.32-2.01l-5.1-1.62c-1.49-.47-2.56-1.67-2.93-2.67-.61-1.65-.39-3.55.9-4.63,1.67-1.42,3.83-1.53,5.93-1.31,2.7.29,4.59,2.22,4.5,4.85-1.19.12-2.09.14-3.17-.03-.39-2.02-2.07-2.54-3.95-2.13-.75.16-1.37.55-1.49,1.14-.12.66.32,1.32,1.08,1.57l5.27,1.67Z"/>
      <path class="cls-1" d="M357.15,144.15l-7.75.12.07,4.22,8.64.02-.04,2.71h-11.92s0-15.74,0-15.74h11.72s-.03,2.68-.03,2.68l-8.31-.03c-.27,1.38-.24,2.35,0,3.51l7.62-.05v2.57Z"/>
      <path class="cls-1" d="M313.78,135.57l3.24-.03-.02,9.98c0,1.95-.41,3.61-1.78,4.76-1.23,1.03-3.06,1.25-4.8,1.27-3.46.04-5.9-2.01-5.92-5.57l-.04-10.46h3.24s0,10,0,10c0,1.77.92,2.89,2.28,3.14,1.62.3,3.68-.24,3.7-2.17l.11-10.93Z"/>
      <path class="cls-1" d="M259.45,151.07c-1.26.27-2.22.18-3.27.09v-13s-4.53.06-4.53.06c-.3-.95-.16-1.89-.13-2.75h12.51s-.01,2.75-.01,2.75l-4.6.04.03,12.81Z"/>
      <path class="cls-1" d="M291.57,151.07c-1.26.27-2.22.18-3.27.09v-13s-4.53.06-4.53.06c-.3-.95-.16-1.89-.13-2.75h12.51s-.01,2.75-.01,2.75l-4.6.04.03,12.81Z"/>
      <path class="cls-1" d="M333.28,151.07c-1.26.27-2.22.18-3.27.09v-13s-4.53.06-4.53.06c-.3-.95-.16-1.89-.13-2.75h12.51s-.01,2.75-.01,2.75l-4.6.04.03,12.81Z"/>
      <path class="cls-1" d="M200.68,151.09c-.93.22-1.94.19-3.29.03l-.04-15.61,3.29-.04.04,15.62Z"/>
      <path class="cls-1" d="M275.47,151.09c-.93.22-1.94.19-3.29.03l-.04-15.61,3.29-.04.04,15.62Z"/>
    </g>
  </g>
</svg>