<?xml version="1.0" encoding="utf-8"?>
<!-- Generator: Adobe Illustrator 27.5.0, SVG Export Plug-In . SVG Version: 6.00 Build 0)  -->
<svg version="1.1" id="Layer_1" xmlns="http://www.w3.org/2000/svg" xmlns:xlink="http://www.w3.org/1999/xlink" x="0px" y="0px"
	 viewBox="0 0 100 100" style="enable-background:new 0 0 100 100;" xml:space="preserve">
<style type="text/css">
	.st0{fill:#FFFFFF;}
</style>
<g>
	<path class="st0" d="M24,27.2h2.7v14H24V27.2z M3.6,42.9v2.4h4.2v11.6h2.7V45.3h4.2v-2.4L3.6,42.9z M27.4,27.2v2.4H32v11.6h2.7
		V29.6h4.5v-2.4L27.4,27.2z M14,50.7h4.5c-0.1-1.3-0.9-2.1-2.1-2.1C14.9,48.6,14.2,49.4,14,50.7z M11.3,51.8c0-3,2-5.3,5-5.3
		c3.2,0,5,2.5,5,6H14c0.2,1.5,1.1,2.5,2.6,2.5c1,0,1.6-0.5,1.9-1.2h2.6c-0.4,1.8-2,3.3-4.5,3.3C13.2,57.1,11.3,54.8,11.3,51.8
		C11.3,51.8,11.3,51.8,11.3,51.8z M21.8,51.8c0,3,2,5.3,5.2,5.3c2.7,0,4.3-1.7,4.5-3.8h-2.6c-0.2,1.1-0.9,1.7-2,1.7
		c-1.6,0-2.4-1.3-2.4-3.2c0-1.9,0.8-3.2,2.4-3.2c0.4,0,0.9,0.1,1.2,0.4c0.3,0.3,0.6,0.7,0.6,1.1h2.6c-0.4-2.2-2-3.7-4.6-3.7
		C23.7,46.5,21.7,48.8,21.8,51.8C21.7,51.8,21.8,51.8,21.8,51.8z M34.6,42.9H32v14h2.7v-5.7c0-1.4,0.9-2.3,2-2.3
		c1.1,0,1.7,0.8,1.7,1.8v6.1h2.7v-6.5c0-2.2-1.4-3.7-3.5-3.7c-1.4,0-2.2,0.5-2.9,1.6h-0.1L34.6,42.9L34.6,42.9z M44.5,46.8h-2.6v10
		h2.7v-5.7c0-1.4,0.9-2.3,2-2.3c1.1,0,1.7,0.8,1.7,1.8v6.1H51v-6.5c0-2.2-1.4-3.7-3.5-3.7c-1.4,0-2.3,0.6-3,1.6h-0.1
		C44.5,48.2,44.5,46.8,44.5,46.8z M59.3,51.8c0-2-0.9-3.3-2.5-3.3s-2.5,1.3-2.5,3.3s0.9,3.3,2.5,3.3S59.3,53.8,59.3,51.8z
		 M51.5,51.8c0-3,2.1-5.3,5.3-5.3s5.3,2.3,5.3,5.3c0,3-2.1,5.3-5.3,5.3C53.6,57.1,51.5,54.8,51.5,51.8z M62.5,56.8h2.7v-14h-2.7
		L62.5,56.8z M73.5,51.8c0-2-0.9-3.3-2.5-3.3c-1.6,0-2.5,1.3-2.5,3.3s0.9,3.3,2.5,3.3C72.6,55.1,73.5,53.8,73.5,51.8z M65.7,51.8
		c0-3,2.1-5.3,5.3-5.3c3.1,0,5.3,2.3,5.3,5.3c0,3-2.1,5.3-5.3,5.3C67.9,57.1,65.7,54.8,65.7,51.8z M83.9,51.4c0-1.5-0.8-2.7-2.4-2.7
		c-1.4,0-2.3,1.1-2.3,2.7c0,1.7,0.9,2.7,2.3,2.7C83.2,54.1,83.9,52.9,83.9,51.4C83.9,51.4,83.9,51.4,83.9,51.4z M76.9,57.1h2.6
		c0.2,0.6,0.8,1.1,2,1.1c1.5,0,2.2-0.7,2.2-2.1v-1.1h-0.1c-0.3,0.4-0.7,0.7-1.2,0.9c-0.5,0.2-1,0.3-1.5,0.3c-2.2,0-4.4-1.8-4.4-4.8
		c0-3,1.8-4.9,4.3-4.9c1.3,0,2.2,0.5,2.8,1.3h0v-1.1h2.6v9.2c0,1.4-0.5,2.4-1.2,3c-0.8,0.8-2.1,1.1-3.6,1.1
		C78.8,60.2,77.1,59.1,76.9,57.1C76.9,57.1,76.9,57.1,76.9,57.1z M87.8,60.1h1.6c2,0,2.8-0.8,3.5-3l3.5-10.3h-2.7l-1.4,4.5
		c-0.3,0.9-0.6,2.2-0.6,2.2h0c0,0-0.3-1.3-0.6-2.2l-1.5-4.5h-2.8l2.7,7.1c0.6,1.5,0.8,2.2,0.8,2.7c0,0.8-0.4,1.4-1.5,1.4h-0.9
		L87.8,60.1L87.8,60.1z M10.6,64.8H14c1.5,0,2.3-0.7,2.3-1.9c0-1.3-0.8-1.9-2.2-1.9h-3.5L10.6,64.8L10.6,64.8z M13.4,67.1h-2.8v5.4
		H7.8v-14h6.3c1.8,0,2.8,0.5,3.7,1.3c0.8,0.8,1.3,1.9,1.3,3c0,2-1,3.3-2.8,3.9l3.5,5.7h-3.1L13.4,67.1L13.4,67.1z M21.6,66.4H26
		c-0.1-1.3-0.9-2.1-2.1-2.1C22.5,64.3,21.8,65.1,21.6,66.4z M18.9,67.5c0-3,2-5.3,5-5.3c3.2,0,5,2.5,5,6h-7.3
		c0.2,1.5,1.1,2.5,2.6,2.5c1,0,1.6-0.5,1.9-1.2h2.6c-0.4,1.8-2,3.3-4.5,3.3C20.8,72.8,18.9,70.5,18.9,67.5L18.9,67.5L18.9,67.5z
		 M31.7,72.5h2.5l3.7-10h-2.7l-2.3,6.8h0l-2.3-6.8H28L31.7,72.5L31.7,72.5z M38.4,72.5h2.7v-10h-2.7V72.5z M38.4,61.8h2.7v-2.4h-2.7
		V61.8L38.4,61.8z M44.3,66.4h4.5c-0.1-1.3-0.9-2.1-2.1-2.1C45.2,64.3,44.6,65.1,44.3,66.4z M41.7,67.5c0-3,2-5.3,5-5.3
		c3.2,0,5,2.5,5,6h-7.3c0.2,1.5,1.1,2.5,2.6,2.5c1,0,1.6-0.5,1.9-1.2h2.6c-0.4,1.8-2,3.3-4.5,3.3C43.5,72.8,41.7,70.5,41.7,67.5
		L41.7,67.5L41.7,67.5z M53.8,72.5h2.4l1.8-6.6h0l1.8,6.6h2.4l3-10h-2.6L61,68.9h0l-1.8-6.4h-2.3l-1.7,6.4h0l-1.7-6.4h-2.7
		L53.8,72.5z M19,27.2l-3.3,10.2l-3.5-10.2H7.8v14h2.6v-11l3.8,11h2.7l3.6-11v11h2.6v-14H19z"/>
</g>
</svg>
