<?xml version="1.0" encoding="UTF-8"?>
<svg id="Layer_2" data-name="Layer 2" xmlns="http://www.w3.org/2000/svg" viewBox="0 0 168 26.4">
  <defs>
    <style>
      .cls-1 {
        fill: #fff;
      }
    </style>
  </defs>
  <g id="Layer_1-2" data-name="Layer 1" focusable="false">
    <g>
      <path class="cls-1" d="M48.85,3.01v18.09h-4.12l-7.5-11.06v11.06h-4.06V3.01h4.09l7.53,11.06V3.01h4.06Z"/>
      <path class="cls-1" d="M50.39,14.42c0-3.98,3.09-7,7.21-7s7.21,3.02,7.21,7-3.09,7-7.21,7-7.21-3.01-7.21-7ZM60.88,14.42c0-1.89-1.39-3.3-3.28-3.3s-3.28,1.42-3.28,3.3,1.39,3.3,3.28,3.3,3.28-1.42,3.28-3.3Z"/>
      <path class="cls-1" d="M74.09,7.52v3.93h-.58c-2.33,0-3.62,1.34-3.62,3.41v6.24h-3.83V7.73h3.83v1.52c.94-1.1,2.18-1.73,3.62-1.73h.58Z"/>
      <path class="cls-1" d="M88.41,2.23v18.88h-3.83v-1.34c-1.02,1.05-2.41,1.65-4.04,1.65-3.67,0-6.45-3.01-6.45-7s2.78-7,6.45-7c1.62,0,3.01.6,4.04,1.65V2.23h3.83ZM84.58,14.42c0-1.89-1.39-3.3-3.28-3.3s-3.25,1.42-3.25,3.3,1.39,3.3,3.25,3.3,3.28-1.42,3.28-3.3Z"/>
      <path class="cls-1" d="M90,3.67c0-1.34,1.02-2.33,2.36-2.33s2.39,1,2.39,2.33-1.02,2.36-2.39,2.36-2.36-1-2.36-2.36ZM90.44,7.73h3.83v13.37h-3.83V7.73Z"/>
      <path class="cls-1" d="M95.4,14.42c0-3.98,3.09-7,7.21-7,2.7,0,4.95,1.28,6.19,3.33l-3.33,2.02c-.55-1-1.6-1.65-2.86-1.65-1.89,0-3.28,1.42-3.28,3.3s1.39,3.3,3.28,3.3c1.26,0,2.31-.66,2.86-1.65l3.33,2.02c-1.23,2.05-3.49,3.33-6.19,3.33-4.12,0-7.21-3.01-7.21-7h0Z"/>
      <path class="cls-1" d="M125.62,3.01v18.09h-4.12l-7.5-11.06v11.06h-4.06V3.01h4.09l7.53,11.06V3.01h4.06Z"/>
      <path class="cls-1" d="M127.48,3.67c0-1.34,1.02-2.33,2.36-2.33s2.39,1,2.39,2.33-1.02,2.36-2.39,2.36-2.36-1-2.36-2.36ZM127.93,7.73h3.83v13.37h-3.83V7.73Z"/>
      <path class="cls-1" d="M146.77,12.5v8.6h-3.83v-7.31c0-1.62-1.02-2.67-2.59-2.67s-2.75,1.08-2.75,2.73v7.26h-3.83V7.73h3.83v1.34c1.05-1.08,2.41-1.65,4.06-1.65,3.07,0,5.11,2.02,5.11,5.09Z"/>
      <path class="cls-1" d="M146.15,26.09v-3.44c.39.16.79.26,1.18.26.86,0,1.31-.45,1.31-1.28V7.73h3.83v14.34c0,2.54-1.39,4.33-4.43,4.33-.73,0-1.34-.11-1.89-.31ZM148.17,3.67c0-1.34,1.02-2.33,2.39-2.33s2.36,1,2.36,2.33-1.02,2.36-2.36,2.36-2.39-1-2.39-2.36Z"/>
      <path class="cls-1" d="M168,7.73v13.37h-3.83v-1.34c-1.02,1.05-2.41,1.65-4.04,1.65-3.67,0-6.45-3.01-6.45-7s2.78-7,6.45-7c1.62,0,3.01.6,4.04,1.65v-1.34h3.83ZM164.17,14.42c0-1.89-1.39-3.3-3.28-3.3s-3.25,1.42-3.25,3.3,1.39,3.3,3.25,3.3,3.28-1.42,3.28-3.3Z"/>
      <path class="cls-1" d="M13.8,12.36c0,.8-.65,1.44-1.45,1.44s-1.45-.64-1.45-1.44.65-1.45,1.45-1.45,1.45.64,1.45,1.45Z"/>
      <path class="cls-1" d="M12.43,0C5.56,0,0,5.57,0,12.43s5.56,12.43,12.43,12.43,12.43-5.57,12.43-12.43S19.29,0,12.43,0ZM19.53,16.56c-.84.99-2.45,1.06-3.84.24.01.29-.02.58-.07.88-.34,1.9-1.81,3.24-3.29,2.98-1.28-.23-2.15-1.58-2.13-3.18-.25.15-.52.28-.81.38-1.83.66-3.73.07-4.24-1.33-.45-1.22.3-2.64,1.7-3.42-.25-.14-.49-.3-.73-.5-1.49-1.24-1.92-3.17-.95-4.31.84-.99,2.45-1.06,3.84-.25-.01-.28.01-.58.07-.87.34-1.9,1.81-3.24,3.29-2.98,1.28.23,2.15,1.58,2.13,3.17.25-.14.52-.27.8-.38,1.84-.66,3.74-.06,4.25,1.34.45,1.22-.3,2.64-1.71,3.42.26.14.5.3.74.5,1.49,1.24,1.92,3.17.95,4.31Z"/>
      <path class="cls-1" d="M13.8,12.36c0,.8-.65,1.44-1.45,1.44s-1.45-.64-1.45-1.44.65-1.45,1.45-1.45,1.45.64,1.45,1.45Z"/>
      <path class="cls-1" d="M13.8,12.36c0,.8-.65,1.44-1.45,1.44s-1.45-.64-1.45-1.44.65-1.45,1.45-1.45,1.45.64,1.45,1.45Z"/>
    </g>
  </g>
</svg>