<?xml version="1.0" encoding="UTF-8"?>
<svg xmlns="http://www.w3.org/2000/svg" version="1.1" viewBox="0 0 114.773 27">
  <defs>
    <style>
      .cls-1 {
        fill: #fff;
      }
    </style>
  </defs>
  <!-- Generator: Adobe Illustrator 28.6.0, SVG Export Plug-In . SVG Version: 1.2.0 Build 709)  -->
  <g>
    <g id="Layer_1">
      <g>
        <g>
          <path class="cls-1" d="M66.096,10.159c-.184-.13-.409-.259-.673-.385-.265-.127-.554-.241-.868-.345-.314-.104-.654-.188-1.018-.253-.364-.065-.734-.099-1.11-.099-.421,0-.809.045-1.161.133-.353.088-.656.217-.909.385-.253.169-.45.374-.592.615-.142.242-.213.517-.213.822,0,.507.202.899.604,1.179.402.28,1.021.47,1.857.569l1.38.161c1.134.131,2.01.434,2.627.909.617.475.926,1.142.926,2.001,0,.514-.113.972-.339,1.374-.227.402-.542.741-.949,1.018-.407.276-.896.487-1.466.633-.571.146-1.206.218-1.903.218-.79,0-1.572-.108-2.346-.327s-1.476-.569-2.104-1.053l.609-.978c.207.161.437.316.69.466.253.149.536.28.851.392s.662.199,1.041.264c.379.065.803.099,1.271.099.491,0,.938-.042,1.34-.127.403-.084.75-.211,1.041-.38.291-.168.518-.379.678-.632.161-.253.242-.548.242-.886,0-1.012-.832-1.61-2.496-1.794l-1.392-.149c-.613-.069-1.14-.186-1.581-.351s-.805-.37-1.093-.615c-.287-.245-.498-.531-.632-.857-.134-.325-.201-.68-.201-1.063,0-.498.102-.943.305-1.334s.491-.723.862-.995c.372-.271.817-.48,1.334-.626.518-.146,1.087-.219,1.708-.219.858,0,1.658.115,2.398.345.74.23,1.355.521,1.846.874l-.563,1.012Z"/>
          <path class="cls-1" d="M77.347,9.296h-4.991v5.899c0,.46.057.857.172,1.19.115.334.278.609.489.828.21.219.464.382.759.488.295.108.623.161.983.161.467,0,.906-.074,1.317-.224.41-.149.776-.351,1.098-.604l.621.978c-.391.322-.85.583-1.375.782-.525.199-1.114.299-1.765.299-1.127,0-2.011-.317-2.651-.954s-.96-1.61-.96-2.921v-5.923h-2.484v-1.195h2.484v-3.531h1.311v3.531h4.991v1.195Z"/>
          <path class="cls-1" d="M84.636,7.916c.392,0,.754.033,1.087.098.334.065.646.171.938.316l-.333,1.276c-.269-.146-.573-.255-.915-.327-.341-.073-.677-.109-1.006-.109-.452,0-.868.088-1.248.265-.379.176-.705.423-.978.741s-.484.701-.638,1.15c-.153.448-.23.944-.23,1.489v6.106h-1.3v-10.821h1.288v1.84c.353-.637.816-1.133,1.392-1.489s1.223-.535,1.943-.535Z"/>
          <path class="cls-1" d="M89.578,3.259c.269,0,.493.092.673.275.18.185.271.411.271.679s-.091.491-.271.667c-.18.177-.404.265-.673.265s-.49-.088-.667-.265c-.176-.176-.265-.398-.265-.667s.089-.494.265-.679c.177-.184.398-.275.667-.275ZM90.234,18.922h-1.311v-10.821h1.311v10.821Z"/>
          <path class="cls-1" d="M98.656,18.945h-1.507l-4.783-10.844h1.426l4.117,9.521,4.14-9.521h1.38l-4.772,10.844Z"/>
          <path class="cls-1" d="M109.701,7.928c.721,0,1.39.136,2.007.408s1.149.651,1.599,1.139c.448.486.803,1.069,1.063,1.748.261.679.395,1.42.402,2.225,0,.1-.002.194-.006.282s-.01.175-.017.259h-9.074c.046.629.187,1.188.42,1.679.234.491.539.907.914,1.248.376.341.807.6,1.294.776.487.176,1.007.265,1.559.265.759,0,1.438-.139,2.035-.414.598-.276,1.139-.652,1.622-1.127l.701.896c-.345.345-.696.633-1.053.862-.356.23-.721.414-1.092.553-.372.138-.75.233-1.133.287-.384.054-.771.08-1.162.08-.789,0-1.518-.136-2.185-.408-.667-.271-1.242-.653-1.726-1.144-.482-.491-.858-1.077-1.127-1.76-.268-.683-.402-1.438-.402-2.266,0-.812.137-1.562.408-2.248.272-.687.648-1.276,1.127-1.771.479-.494,1.047-.88,1.702-1.155.655-.276,1.363-.414,2.122-.414ZM109.678,9.089c-.552,0-1.056.095-1.512.282s-.857.448-1.202.782c-.345.333-.627.729-.845,1.189-.219.46-.358.967-.42,1.519h7.739c-.046-.56-.173-1.071-.38-1.535-.206-.464-.477-.86-.811-1.19-.333-.33-.719-.587-1.155-.771-.438-.185-.909-.276-1.415-.276Z"/>
        </g>
        <g>
          <path class="cls-1" d="M21.018,24.256c-2.261,1.617-4.912,2.466-7.716,2.466C5.966,26.722,0,20.756,0,13.419S5.966.117,13.303.117c2.804,0,5.454.849,7.716,2.456-3.162,2.732-4.963,6.641-4.963,10.847s1.801,8.115,4.963,10.837Z"/>
          <path class="cls-1" d="M21.837,3.227c-3.029,2.528-4.758,6.222-4.758,10.192s1.729,7.654,4.758,10.192c3.039-2.538,4.768-6.222,4.768-10.192s-1.729-7.664-4.768-10.192ZM30.381.117c-2.804,0-5.454.849-7.716,2.456,3.162,2.732,4.963,6.641,4.963,10.847s-1.801,8.115-4.963,10.837c2.261,1.617,4.912,2.466,7.716,2.466,7.327,0,13.303-5.966,13.303-13.303S37.708.117,30.381.117ZM21.837,3.227c-3.029,2.528-4.758,6.222-4.758,10.192s1.729,7.654,4.758,10.192c3.039-2.538,4.768-6.222,4.768-10.192s-1.729-7.664-4.768-10.192ZM30.381.117c-2.804,0-5.454.849-7.716,2.456,3.162,2.732,4.963,6.641,4.963,10.847s-1.801,8.115-4.963,10.837c2.261,1.617,4.912,2.466,7.716,2.466,7.327,0,13.303-5.966,13.303-13.303S37.708.117,30.381.117ZM30.381.117c-2.804,0-5.454.849-7.716,2.456,3.162,2.732,4.963,6.641,4.963,10.847s-1.801,8.115-4.963,10.837c2.261,1.617,4.912,2.466,7.716,2.466,7.327,0,13.303-5.966,13.303-13.303S37.708.117,30.381.117ZM21.837,3.227c-3.029,2.528-4.758,6.222-4.758,10.192s1.729,7.654,4.758,10.192c3.039-2.538,4.768-6.222,4.768-10.192s-1.729-7.664-4.768-10.192Z"/>
        </g>
      </g>
    </g>
  </g>
</svg>