<?xml version="1.0" encoding="utf-8"?>
<!-- Generator: Adobe Illustrator 27.7.0, SVG Export Plug-In . SVG Version: 6.00 Build 0)  -->
<svg version="1.1" id="Layer_1" xmlns="http://www.w3.org/2000/svg" xmlns:xlink="http://www.w3.org/1999/xlink" x="0px" y="0px"
	 viewBox="0 0 100 100" style="enable-background:new 0 0 100 100;" xml:space="preserve">
<style type="text/css">
	.st0{fill:#FFFFFF;}
</style>
<g>
	<g id="Symbols">
		<g id="Hub-logo-by-dasnke-bank">
			<path class="st0" d="M70.9534,28.88076v27.12398c-0.18091,3.55717,1.78801,6.87622,4.99652,8.42271
				c4.04411,2.10573,9.00481,1.16084,11.99166-2.28412c3.7117-4.56825,2.7124-12.99096-3.99722-15.41784
				c-2.21689-0.78379-4.63549-0.78379-6.85238,0H76.6637v-4.85377c-0.02512-0.30516,0.14719-0.59235,0.42828-0.71379
				c7.52412-2.34197,15.53476,1.7905,17.98748,9.27926c1.87479,5.25827,0.84442,11.11513-2.7124,15.41784
				c-2.13214,2.50716-5.05075,4.21806-8.27995,4.85376c-3.70586,0.78888-7.56831,0.33742-10.99235-1.28482
				c-4.39615-2.18984-7.32206-6.52452-7.70892-11.42062c-0.11845-0.85114-0.16621-1.71062-0.14275-2.56964V28.88076H70.9534z
				 M9.56755,28.88076c0,0.28552,0.14276,0.42827,0.14276,0.71379V45.2979c0.07884,0,0.14276-0.06391,0.14276-0.14275
				c2.26823-3.12891,5.99659-4.85801,9.85029-4.56825c5.96562-0.02916,10.97425,4.48478,11.56338,10.42132
				c0.23201,1.22289,0.32776,2.46772,0.28552,3.7117c0.14276,4.99652,0.14276,9.99305,0.14276,14.98957v0.7138h-5.85307V54.4344
				c0.04226-1.36752-0.20084-2.72884-0.71379-3.99722c-1.03066-2.48628-3.44725-4.11607-6.13858-4.13998
				c-2.99481-0.46932-6.00669,0.73542-7.85168,3.14067c-0.96857,1.53646-1.46494,3.32339-1.42758,5.13928v15.84611H4V28.88076
				H9.56755z M34.97844,41.15793h5.71031v0.57103c0,5.13928,0,10.1358,0.14275,15.13233
				c-0.02982,1.26122,0.16351,2.51778,0.57103,3.7117c1.02679,3.36024,4.38688,5.43739,7.85168,4.85377
				c3.87982-0.14656,6.99133-3.25807,7.13789-7.13789V41.15793h5.71031v16.13163c0.05593,2.37932-0.48388,4.73486-1.57033,6.85238
				c-1.35443,2.94653-3.89764,5.17834-6.99514,6.13859c-3.33591,1.16543-6.9763,1.11488-10.27856-0.14275
				c-4.31133-1.47537-7.37471-5.31853-7.85168-9.85029c-0.23092-1.17487-0.32672-2.3723-0.28552-3.56894
				c-0.14275-4.99652-0.14275-9.99305-0.14275-14.84681V41.15793z"/>
		</g>
	</g>
</g>
</svg>
